<!-- Generated by IcoMoon.io -->
<svg version="1.1" xmlns="http://www.w3.org/2000/svg" width="16" height="16" viewBox="0 0 16 16">
<title>traffic-cone</title>
<path d="M8 9.662c1.912 0 3.514-0.65 3.61-1.498-0.285-0.797-0.595-1.667-0.9-2.522-0.211 0.609-1.38 1.041-2.71 1.041s-2.499-0.432-2.71-1.041c-0.305 0.854-0.615 1.725-0.899 2.522 0.097 0.849 1.698 1.498 3.61 1.498zM8 4.298c0.899 0 1.734-0.278 1.978-0.711-0.337-0.946-0.626-1.758-0.809-2.269-0.122-0.342-0.673-0.518-1.17-0.518s-1.048 0.177-1.17 0.518c-0.182 0.511-0.472 1.323-0.809 2.269 0.245 0.433 1.080 0.711 1.978 0.711zM15.024 10.453l-3.004-1.211 0.346 0.966c-0.018 1.023-2.003 1.839-4.366 1.839s-4.35-0.815-4.366-1.839l0.346-0.966-3.004 1.211c-0.842 0.339-0.878 0.967-0.078 1.395l5.65 3.030c0.798 0.428 2.106 0.428 2.906 0l5.65-3.030c0.799-0.428 0.763-1.056-0.079-1.395z"></path>
</svg>
