<svg xmlns="http://www.w3.org/2000/svg" width="16" height="16"><path d="M8 9.662c1.912 0 3.514-.65 3.61-1.498l-.9-2.522c-.211.609-1.38 1.041-2.71 1.041s-2.499-.432-2.71-1.041l-.899 2.522c.097.849 1.698 1.498 3.61 1.498zm0-5.364c.899 0 1.734-.278 1.978-.711l-.809-2.269C9.047.976 8.496.8 7.999.8s-1.048.177-1.17.518L6.02 3.587c.245.433 1.08.711 1.978.711zm7.024 6.155L12.02 9.242l.346.966c-.018 1.023-2.003 1.839-4.366 1.839s-4.35-.815-4.366-1.839l.346-.966-3.004 1.211c-.842.339-.878.967-.078 1.395l5.65 3.03c.798.428 2.106.428 2.906 0l5.65-3.03c.799-.428.763-1.056-.079-1.395z"/></svg>