<svg xmlns="http://www.w3.org/2000/svg" width="16" height="16"><path d="M2.508 5.512c.746-.58 1.366-.18 2.192.777.093.108.218-.018.289-.08S6.15 5.165 6.203 5.12c.053-.047.117-.135.033-.234a27.04 27.04 0 0 1-.594-.761C4.196 2.233 9.599.95 8.769.93 8.347.919 6.652.899 6.399.927c-1.026.108-2.315 1.067-2.964 1.514-.849.581-1.166.922-1.218.969-.24.21-.038.694-.474 1.075-.46.402-.747.098-1.014.331-.132.117-.502.394-.607.486-.106.094-.126.251-.017.377 0 0 1.011 1.117 1.096 1.216.084.098.313.182.454.057s.506-.442.566-.498c.062-.053-.04-.689.286-.942zm4.566.414c-.096-.111-.215-.114-.318-.023L5.609 6.905a.232.232 0 0 0-.022.32l6.635 7.551a.425.425 0 0 0 .601.042l.776-.65a.432.432 0 0 0 .042-.606L7.074 5.927zm8.848-3.214c-.059-.395-.264-.313-.37-.146-.106.169-.577.882-.77 1.205-.192.32-.666.953-1.547.328-.918-.649-.599-1.102-.439-1.406a32.33 32.33 0 0 1 .726-1.272c.071-.108-.012-.422-.297-.29s-2.018.82-2.258 1.808c-.246 1.005.206 1.903-.68 2.795l-1.074 1.12 1.079 1.253 1.323-1.256c.315-.317.989-.625 1.598-.486 1.306.295 2.019-.195 2.449-1.006.386-.725.322-2.251.262-2.646zM2.191 13.642a.431.431 0 0 0 0 .606l.761.744c.166.167.43.097.597-.07l3.926-3.859-1.202-1.371-4.081 3.95z"/></svg>