<!-- Generated by IcoMoon.io -->
<svg version="1.1" xmlns="http://www.w3.org/2000/svg" width="16" height="16" viewBox="0 0 16 16">
<title>tools</title>
<path d="M2.508 5.512c0.746-0.58 1.366-0.18 2.192 0.777 0.093 0.108 0.218-0.018 0.289-0.080s1.161-1.044 1.214-1.089c0.053-0.047 0.117-0.135 0.033-0.234-0.086-0.098-0.395-0.5-0.594-0.761-1.446-1.892 3.957-3.175 3.127-3.195-0.422-0.011-2.117-0.031-2.37-0.003-1.026 0.108-2.315 1.067-2.964 1.514-0.849 0.581-1.166 0.922-1.218 0.969-0.24 0.21-0.038 0.694-0.474 1.075-0.46 0.402-0.747 0.098-1.014 0.331-0.132 0.117-0.502 0.394-0.607 0.486-0.106 0.094-0.126 0.251-0.017 0.377 0 0 1.011 1.117 1.096 1.216 0.084 0.098 0.313 0.182 0.454 0.057s0.506-0.442 0.566-0.498c0.062-0.053-0.040-0.689 0.286-0.942zM7.074 5.926c-0.096-0.111-0.215-0.114-0.318-0.023l-1.147 1.002c-0.090 0.080-0.103 0.226-0.022 0.32l6.635 7.551c0.155 0.178 0.424 0.197 0.601 0.042l0.776-0.65c0.178-0.156 0.196-0.426 0.042-0.606l-6.567-7.635zM15.922 2.712c-0.059-0.395-0.264-0.313-0.37-0.146-0.106 0.169-0.577 0.882-0.77 1.205-0.192 0.32-0.666 0.953-1.547 0.328-0.918-0.649-0.599-1.102-0.439-1.406 0.161-0.306 0.654-1.166 0.726-1.272 0.071-0.108-0.012-0.422-0.297-0.29s-2.018 0.82-2.258 1.808c-0.246 1.005 0.206 1.903-0.68 2.795l-1.074 1.12 1.079 1.253 1.323-1.256c0.315-0.317 0.989-0.625 1.598-0.486 1.306 0.295 2.019-0.195 2.449-1.006 0.386-0.725 0.322-2.251 0.262-2.646zM2.191 13.642c-0.166 0.167-0.166 0.439 0 0.606l0.761 0.744c0.166 0.167 0.43 0.097 0.597-0.070l3.926-3.859-1.202-1.371-4.081 3.95z"></path>
</svg>
