<!-- Generated by IcoMoon.io -->
<svg version="1.1" xmlns="http://www.w3.org/2000/svg" width="16" height="16" viewBox="0 0 16 16">
<title>eye</title>
<path d="M8 3.52c-5.249 0-8 3.866-8 4.48 0 0.613 2.751 4.48 8 4.48s8-3.867 8-4.48c0-0.614-2.752-4.48-8-4.48zM8 11.446c-1.964 0-3.556-1.542-3.556-3.446s1.592-3.447 3.556-3.447c1.964 0 3.555 1.544 3.555 3.447s-1.591 3.446-3.555 3.446zM8 8c-0.326-0.358 0.53-1.723 0-1.723-0.982 0-1.778 0.772-1.778 1.723s0.796 1.723 1.778 1.723c0.982 0 1.778-0.772 1.778-1.723 0-0.438-1.502 0.303-1.778 0z"></path>
</svg>
