<?xml version="1.0" encoding="utf-8"?><svg width="64" height="48" viewBox="0 0 64 48" xmlns="http://www.w3.org/2000/svg" xmlns:xlink="http://www.w3.org/1999/xlink"><svg width="16" height="16" fill="#FFF" viewBox="0 0 16 16" id="images--bn-icon--close" xmlns="http://www.w3.org/2000/svg"><path d="M15.854 12.854 11 8l4.854-4.854a.503.503 0 0 0 0-.707L13.561.146a.499.499 0 0 0-.707 0L8 5 3.146.146a.5.5 0 0 0-.707 0L.146 2.439a.499.499 0 0 0 0 .707L5 8 .146 12.854a.5.5 0 0 0 0 .707l2.293 2.293a.499.499 0 0 0 .707 0L8 11l4.854 4.854a.5.5 0 0 0 .707 0l2.293-2.293a.499.499 0 0 0 0-.707z"/></svg><svg width="16" height="16" fill="#FFF" viewBox="0 0 16 16" id="images--bn-icon--cog" x="16" xmlns="http://www.w3.org/2000/svg"><path d="M14.59 9.535a3.053 3.053 0 0 1 1.127-4.164l-1.572-2.723a3.017 3.017 0 0 1-1.529.414A3.052 3.052 0 0 1 9.574 0H6.429a3.009 3.009 0 0 1-.406 1.535c-.839 1.454-2.706 1.948-4.17 1.106L.281 5.364a3 3 0 0 1 1.123 1.117 3.053 3.053 0 0 1-1.12 4.16l1.572 2.723c.448-.261.967-.41 1.522-.41A3.052 3.052 0 0 1 6.42 16h3.145a3.012 3.012 0 0 1 .406-1.519 3.053 3.053 0 0 1 4.163-1.11l1.572-2.723a3.008 3.008 0 0 1-1.116-1.113zM8 11.24a3.24 3.24 0 1 1 0-6.48 3.24 3.24 0 0 1 0 6.48z"/></svg><svg width="16" height="16" viewBox="0 0 16 16" id="images--bn-icon--db" y="16" xmlns="http://www.w3.org/2000/svg"><path d="M8 0C3.582 0 0 1.119 0 2.5v2C0 5.881 3.582 7 8 7s8-1.119 8-2.5v-2C16 1.119 12.418 0 8 0z"/><path d="M8 8.5C3.582 8.5 0 7.381 0 6v3c0 1.381 3.582 2.5 8 2.5s8-1.119 8-2.5V6c0 1.381-3.582 2.5-8 2.5z"/><path d="M8 13c-4.418 0-8-1.119-8-2.5v3C0 14.881 3.582 16 8 16s8-1.119 8-2.5v-3c0 1.381-3.582 2.5-8 2.5z"/></svg><svg width="16" height="16" viewBox="0 0 16 16" id="images--bn-icon--devmode" x="16" y="16" xmlns="http://www.w3.org/2000/svg"><path d="M8 9.662c1.912 0 3.514-.65 3.61-1.498l-.9-2.522c-.211.609-1.38 1.041-2.71 1.041s-2.499-.432-2.71-1.041l-.899 2.522c.097.849 1.698 1.498 3.61 1.498zm0-5.364c.899 0 1.734-.278 1.978-.711l-.809-2.269C9.047.976 8.496.8 7.999.8s-1.048.177-1.17.518L6.02 3.587c.245.433 1.08.711 1.978.711zm7.024 6.155L12.02 9.242l.346.966c-.018 1.023-2.003 1.839-4.366 1.839s-4.35-.815-4.366-1.839l.346-.966-3.004 1.211c-.842.339-.878.967-.078 1.395l5.65 3.03c.798.428 2.106.428 2.906 0l5.65-3.03c.799-.428.763-1.056-.079-1.395z"/></svg><svg width="16" height="16" viewBox="0 0 16 16" id="images--bn-icon--edit" x="32" xmlns="http://www.w3.org/2000/svg"><path d="M14.049 1.951c-1.154-1.154-2.02-.982-2.02-.982L1.768 11.229l-.808 3.81 3.81-.808L15.031 3.973c-.001 0 .173-.866-.982-2.022zM4.544 13.774l-1.299.28c-.125-.234-.276-.469-.552-.746s-.511-.426-.746-.553l.28-1.298.376-.375s.706.014 1.505.813c.798.797.813 1.505.813 1.505l-.377.374z"/></svg><svg width="16" height="16" viewBox="0 0 16 16" id="images--bn-icon--flush" x="32" y="16" xmlns="http://www.w3.org/2000/svg"><path d="M16 6h-6l2.243-2.243C11.11 2.624 9.603 2 8 2s-3.109.624-4.243 1.757C2.624 4.89 2 6.397 2 8s.624 3.109 1.757 4.243A5.961 5.961 0 0 0 8 14a5.963 5.963 0 0 0 4.516-2.049l1.505 1.317a8 8 0 1 1-.364-10.924L16 0v6z"/></svg><svg width="16" height="16" viewBox="0 0 16 16" id="images--bn-icon--info" y="32" xmlns="http://www.w3.org/2000/svg"><path d="M16 9V8h-3.02a5.785 5.785 0 0 0-1.12-3.004h2.53L15.485.617l-.97-.243-.905 3.621h-2.729l-.042-.032A2.996 2.996 0 0 0 8.001-.001a2.996 2.996 0 0 0-2.838 3.964l-.042.032H2.392L1.487.374l-.97.243 1.095 4.379h2.53A5.785 5.785 0 0 0 3.022 8H.002v1h3.021c.059.713.242 1.388.526 1.996H1.612L.517 15.375l.97.243.905-3.621h1.756c.917 1.219 2.303 1.996 3.854 1.996s2.937-.777 3.854-1.996h1.756l.905 3.621.97-.243-1.095-4.379h-1.937A5.903 5.903 0 0 0 12.981 9h3.021z"/></svg><svg width="16" height="16" viewBox="0 0 16 16" id="images--bn-icon--tick" x="16" y="32" xmlns="http://www.w3.org/2000/svg"><path d="M13.5 2 6 9.5 2.5 6 0 8.5l6 6 10-10z"/></svg><svg width="16" height="16" viewBox="0 0 16 16" id="images--bn-icon--tools" x="32" y="32" xmlns="http://www.w3.org/2000/svg"><path d="M2.508 5.512c.746-.58 1.366-.18 2.192.777.093.108.218-.018.289-.08S6.15 5.165 6.203 5.12c.053-.047.117-.135.033-.234a27.04 27.04 0 0 1-.594-.761C4.196 2.233 9.599.95 8.769.93 8.347.919 6.652.899 6.399.927c-1.026.108-2.315 1.067-2.964 1.514-.849.581-1.166.922-1.218.969-.24.21-.038.694-.474 1.075-.46.402-.747.098-1.014.331-.132.117-.502.394-.607.486-.106.094-.126.251-.017.377 0 0 1.011 1.117 1.096 1.216.084.098.313.182.454.057s.506-.442.566-.498c.062-.053-.04-.689.286-.942zm4.566.414c-.096-.111-.215-.114-.318-.023L5.609 6.905a.232.232 0 0 0-.022.32l6.635 7.551a.425.425 0 0 0 .601.042l.776-.65a.432.432 0 0 0 .042-.606L7.074 5.927zm8.848-3.214c-.059-.395-.264-.313-.37-.146-.106.169-.577.882-.77 1.205-.192.32-.666.953-1.547.328-.918-.649-.599-1.102-.439-1.406a32.33 32.33 0 0 1 .726-1.272c.071-.108-.012-.422-.297-.29s-2.018.82-2.258 1.808c-.246 1.005.206 1.903-.68 2.795l-1.074 1.12 1.079 1.253 1.323-1.256c.315-.317.989-.625 1.598-.486 1.306.295 2.019-.195 2.449-1.006.386-.725.322-2.251.262-2.646zM2.191 13.642a.431.431 0 0 0 0 .606l.761.744c.166.167.43.097.597-.07l3.926-3.859-1.202-1.371-4.081 3.95z"/></svg><svg width="16" height="16" viewBox="0 0 16 16" id="images--bn-icon--user" x="48" xmlns="http://www.w3.org/2000/svg"><path d="M9 11.041v-.825c1.102-.621 2-2.168 2-3.716C11 4.015 11 2 8 2S5 4.015 5 6.5c0 1.548.898 3.095 2 3.716v.825c-3.392.277-6 1.944-6 3.959h14c0-2.015-2.608-3.682-6-3.959z"/></svg><svg width="16" height="16" viewBox="0 0 16 16" id="images--bn-icon--view" x="48" y="16" xmlns="http://www.w3.org/2000/svg"><path d="M8 3.52C2.751 3.52 0 7.386 0 8c0 .613 2.751 4.48 8 4.48S16 8.613 16 8c0-.614-2.752-4.48-8-4.48zm0 7.926c-1.964 0-3.556-1.542-3.556-3.446S6.036 4.553 8 4.553 11.555 6.097 11.555 8 9.964 11.446 8 11.446zM8 8c-.326-.358.53-1.723 0-1.723-.982 0-1.778.772-1.778 1.723S7.018 9.723 8 9.723 9.778 8.951 9.778 8c0-.438-1.502.303-1.778 0z"/></svg></svg>